#!OML:ASF F:\VICON\USERDATA\INSTALL\rory3\rory3.ASF
:FULLY-SPECIFIED
:DEGREES
2626
root 0.186526 17.4976 -0.352275 5.3802 1.47262 -0.691269
lowerback 0.397506 -0.649971 -0.480926
upperback -2.94026 -0.857775 0.741037
thorax -3.22313 -0.404334 1.05818
lowerneck -17.3876 -11.2035 -14.6824
upperneck 23.8931 -15.9898 14.6586
head 13.4354 -6.79439 5.21318
rclavicle -1.21961e-014 -4.07509e-015
rhumerus -38.4201 21.97 -98.9084
rradius 32.44
rwrist -6.81939
rhand 4.73115 11.1936
rfingers 7.12502
rthumb 30.1135 -16.3731
lclavicle -1.21961e-014 -4.07509e-015
lhumerus -35.7796 -18.734 99.718
lradius 23.4458
lwrist 11.0703
lhand 9.12077 26.7935
lfingers 7.12502
lthumb 34.292 53.512
rfemur 0 0 0
rtibia 0
rfoot 0 0
rtoes 0
lfemur -6.56782 -17.7619 -17.4173
ltibia 14.1038
lfoot -12.5831 14.2023
ltoes -17.9519
2627
root 0.187527 17.4973 -0.35713 5.33548 1.42605 -0.83824
lowerback 0.435917 -0.614028 -0.327111
upperback -2.90868 -0.805091 0.793949
thorax -3.21461 -0.381495 1.02493
lowerneck -17.3373 -11.2243 -14.7554
upperneck 24.0242 -16.0191 14.6349
head 13.4892 -6.8167 5.21548
rclavicle -1.46809e-014 3.08116e-015
rhumerus -38.4645 22.1836 -98.8882
rradius 32.7039
rwrist -6.16725
rhand 4.56106 11.2199
rfingers 7.12502
rthumb 29.9512 -16.3762
lclavicle -1.46809e-014 3.08116e-015
lhumerus -35.7984 -19.2624 99.907
lradius 23.4738
lwrist 9.95638
lhand 8.68502 26.235
lfingers 7.12502
lthumb 33.8781 53.0458
rfemur 0 0 0
rtibia 0
rfoot 0 0
rtoes 0
lfemur -6.57343 -17.7209 -17.287
ltibia 14.2318
lfoot -12.6686 14.3221
ltoes -18.1928
2628
root 0.188675 17.4966 -0.362557 5.31891 1.37681 -1.05383
lowerback 0.515513 -0.590761 -0.117668
upperback -2.95146 -0.766864 0.867819
thorax -3.30624 -0.366477 0.983699
lowerneck -17.35 -11.2452 -14.762
upperneck 24.3495 -16.0474 14.4713
head 13.6137 -6.84198 5.15468
rclavicle -4.22184e-015 -8.24956e-015
rhumerus -38.6299 22.3335 -98.916
rradius 32.9333
rwrist -5.39747
rhand 4.52414 11.4178
rfingers 7.12502
rthumb 29.916 -16.1846
lclavicle -4.22184e-015 -8.24956e-015
lhumerus -35.8882 -19.6118 100.053
lradius 23.4078
lwrist 8.50147
lhand 9.08097 26.2632
lfingers 7.12502
lthumb 34.2542 52.9901
rfemur 0 0 0
rtibia 0
rfoot 0 0
rtoes 0
lfemur -6.64647 -17.6677 -17.0614
ltibia 14.396
lfoot -12.8076 14.3804
ltoes -18.0981
2629
root 0.187974 17.4964 -0.369099 5.31637 1.35272 -1.25781
lowerback 0.58286 -0.587192 0.0813686
upperback -2.99494 -0.755192 0.923379
thorax -3.3913 -0.364924 0.930181
lowerneck -17.332 -11.2259 -14.6806
upperneck 24.6143 -16.018 14.2532
head 13.6811 -6.84313 5.06912
rclavicle -4.11003e-015 -5.36719e-015
rhumerus -38.788 22.3767 -98.971
rradius 33.1655
rwrist -4.37387
rhand 4.57872 11.6485
rfingers 7.12502
rthumb 29.9681 -15.9445
lclavicle -4.11003e-015 -5.36719e-015
lhumerus -35.9514 -20.1076 100.241
lradius 23.3294
lwrist 7.25093
lhand 9.16601 26.2223
lfingers 7.12502
lthumb 34.3349 52.9311
rfemur 0 0 0
rtibia 0
rfoot 0 0
rtoes 0
lfemur -6.76836 -17.6396 -16.838
ltibia 14.5766
lfoot -12.9911 14.3557
ltoes -17.6498
2630
root 0.1877 17.4986 -0.373597 5.33783 1.33981 -1.28164
lowerback 0.617426 -0.561696 0.119454
upperback -3.0433 -0.719847 0.914919
thorax -3.46198 -0.348218 0.899775
lowerneck -17.2568 -11.2298 -14.617
upperneck 24.8113 -16.0272 14.0753
head 13.7221 -6.86214 4.99381
rclavicle 7.38454e-016 -3.37934e-015
rhumerus -38.9237 22.3028 -98.9922
rradius 33.3534
rwrist -3.1919
rhand 4.65139 11.8755
rfingers 7.12502
rthumb 30.0374 -15.705
lclavicle 7.38454e-016 -3.37934e-015
lhumerus -36.0079 -20.7953 100.557
lradius 23.2269
lwrist 6.55754
lhand 8.56266 26.0102
lfingers 7.12502
lthumb 33.7618 52.8465
rfemur 0 0 0
rtibia 0
rfoot 0 0
rtoes 0
lfemur -6.8696 -17.6404 -16.8062
ltibia 14.6752
lfoot -13.1699 14.3424
ltoes -17.2644
2631
root 0.187986 17.4998 -0.376506 5.33652 1.34574 -1.28447
lowerback 0.717408 -0.511496 0.12712
upperback -3.12386 -0.651275 0.91448
thorax -3.60301 -0.313753 0.894384
lowerneck -17.1079 -11.2633 -14.6564
upperneck 24.9977 -16.0844 13.9784
head 13.7722 -6.90618 4.95993
rclavicle -1.08633e-015 -4.17448e-015
rhumerus -39.1504 22.2691 -99.0164
rradius 33.5371
rwrist -1.94179
rhand 4.72459 12.1403
rfingers 7.12502
rthumb 30.1072 -15.4275
lclavicle -1.08633e-015 -4.17448e-015
lhumerus -36.0861 -21.302 100.864
lradius 23.1362
lwrist 5.74986
lhand 8.1525 25.9107
lfingers 7.12502
lthumb 33.372 52.8317
rfemur 0 0 0
rtibia 0
rfoot 0 0
rtoes 0
lfemur -6.89159 -17.6634 -16.802
ltibia 14.6933
lfoot -13.1398 14.3023
ltoes -17.2514
2632
root 0.189401 17.5003 -0.380107 5.38442 1.36724 -1.24981
lowerback 0.701143 -0.491533 0.0864542
upperback -3.17663 -0.625104 0.921766
thorax -3.64836 -0.299181 0.923943
lowerneck -16.9448 -11.2843 -14.7256
upperneck 25.1039 -16.1159 13.9212
head 13.7887 -6.93942 4.95068
rclavicle -9.42364e-015 -4.96962e-015
rhumerus -39.3377 22.348 -99.0921
rradius 33.6869
rwrist -0.702335
rhand 4.47713 12.3186
rfingers 7.12502
rthumb 29.8711 -15.2919
lclavicle -9.42364e-015 -4.96962e-015
lhumerus -35.9429 -21.2781 100.881
lradius 22.9738
lwrist 4.29734
lhand 8.03867 26.0229
lfingers 7.12502
lthumb 33.2638 52.967
rfemur 0 0 0
rtibia 0
rfoot 0 0
rtoes 0
lfemur -6.93645 -17.7037 -16.8274
ltibia 14.6583
lfoot -13.1276 14.1947
ltoes -16.5546
2633
root 0.189739 17.4998 -0.383216 5.40282 1.38546 -1.21602
lowerback 0.607248 -0.50158 -0.01076
upperback -3.15498 -0.640692 0.95515
thorax -3.57118 -0.303826 1.01214
lowerneck -16.8968 -11.2695 -14.7438
upperneck 25.2035 -16.0867 13.8497
head 13.8087 -6.93748 4.93621
rclavicle 3.72566e-015 1.15295e-014
rhumerus -39.393 22.4361 -99.1175
rradius 33.7596
rwrist 0.533318
rhand 4.34726 12.5788
rfingers 7.12502
rthumb 29.7472 -15.0539
lclavicle 3.72566e-015 1.15295e-014
lhumerus -35.6566 -20.9708 100.754
lradius 22.7461
lwrist 2.70807
lhand 7.76534 26.0932
lfingers 7.12502
lthumb 33.0039 53.0926
rfemur 0 0 0
rtibia 0
rfoot 0 0
rtoes 0
lfemur -6.95684 -17.7421 -16.8594
ltibia 14.654
lfoot -13.0872 14.216
ltoes -16.522
2634
root 0.190347 17.5016 -0.386734 5.43816 1.4028 -1.24809
lowerback 0.545418 -0.482144 0.0147542
upperback -3.15716 -0.613908 0.970309
thorax -3.53905 -0.291056 1.01181
lowerneck -16.8855 -11.283 -14.7863
upperneck 25.3469 -16.1164 13.8432
head 13.8762 -6.95343 4.93916
rclavicle 2.80628e-015 -3.47873e-015
rhumerus -39.4415 22.3616 -99.1139
rradius 33.7904
rwrist 1.77136
rhand 4.31558 12.9623
rfingers 7.12502
rthumb 29.7169 -14.6759
lclavicle 2.80628e-015 -3.47873e-015
lhumerus -35.451 -20.8615 100.706
lradius 22.5003
lwrist 1.47377
lhand 7.52888 25.7177
lfingers 7.12502
lthumb 32.779 52.7642
rfemur 0 0 0
rtibia 0
rfoot 0 0
rtoes 0
lfemur -7.00716 -17.7702 -16.8012
ltibia 14.6426
lfoot -13.0704 14.2588
ltoes -16.5168
2635
root 0.190054 17.5026 -0.391921 5.48434 1.4376 -1.34858
lowerback 0.536282 -0.469873 0.129428
upperback -3.18235 -0.593837 0.992446
thorax -3.56125 -0.283914 0.969724
lowerneck -16.8823 -11.2985 -14.7954
upperneck 25.4975 -16.1478 13.8013
head 13.9414 -6.97047 4.92171
rclavicle 7.98711e-015 9.34288e-015
rhumerus -39.4968 22.2375 -99.1156
rradius 33.7536
rwrist 2.99801
rhand 4.1968 13.349
rfingers 7.12502
rthumb 29.6036 -14.3093
lclavicle 7.98711e-015 9.34288e-015
lhumerus -35.2948 -20.706 100.627
lradius 22.3181
lwrist 0.272467
lhand 7.28477 25.2855
lfingers 7.12502
lthumb 32.5467 52.3802
rfemur 0 0 0
rtibia 0
rfoot 0 0
rtoes 0
lfemur -7.10697 -17.806 -16.6486
ltibia 14.6531
lfoot -13.1999 14.2418
ltoes -15.9614
2636
root 0.190479 17.5029 -0.39477 5.54433 1.45573 -1.28614
lowerback 0.463902 -0.47072 0.0625068
upperback -3.18121 -0.597596 0.974911
thorax -3.51856 -0.284238 0.988545
lowerneck -16.8975 -11.2933 -14.7558
upperneck 25.5875 -16.1555 13.7744
head 13.9772 -6.97092 4.90517
rclavicle -3.99744e-015 -9.24349e-015
rhumerus -39.423 21.9639 -99.0568
rradius 33.5938
rwrist 4.30055
rhand 3.92379 13.6697
rfingers 7.12502
rthumb 29.3429 -14.0345
lclavicle -3.99744e-015 -9.24349e-015
lhumerus -35.0349 -20.2556 100.389
lradius 22.139
lwrist -1.07022
lhand 7.14625 25.1373
lfingers 7.12502
lthumb 32.4149 52.2592
rfemur 0 0 0
rtibia 0
rfoot 0 0
rtoes 0
lfemur -7.21785 -17.8431 -16.6815
ltibia 14.6814
lfoot -13.246 14.2421
ltoes -15.9669
2637
root 0.189939 17.5037 -0.398505 5.57545 1.49018 -1.28392
lowerback 0.435326 -0.469657 0.0389109
upperback -3.17764 -0.596613 0.985048
thorax -3.49839 -0.282963 1.01183
lowerneck -16.8701 -11.3073 -14.7548
upperneck 25.6181 -16.1816 13.7631
head 13.9879 -6.98415 4.89665
rclavicle 6.3021e-015 5.96354e-016
rhumerus -39.3003 21.5901 -98.9463
rradius 33.3608
rwrist 5.44637
rhand 3.78791 13.8413
rfingers 7.12502
rthumb 29.2132 -13.8856
lclavicle 6.3021e-015 5.96354e-016
lhumerus -34.8365 -19.9629 100.28
lradius 22.0748
lwrist -2.09366
lhand 7.02731 25.3504
lfingers 7.12502
lthumb 32.3017 52.4953
rfemur 0 0 0
rtibia 0
rfoot 0 0
rtoes 0
lfemur -7.3074 -17.8907 -16.6489
ltibia 14.7326
lfoot -13.2536 14.2656
ltoes -16.0312
2638
root 0.189662 17.5038 -0.403033 5.53952 1.52699 -1.31184
lowerback 0.495959 -0.44006 0.0760983
upperback -3.16624 -0.556314 0.970844
thorax -3.52203 -0.2641 0.975496
lowerneck -16.8255 -11.3352 -14.7431
upperneck 25.6467 -16.251 13.8015
head 14.0069 -7.01021 4.89783
rclavicle 3.65112e-015 -6.4605e-015
rhumerus -39.2007 21.1613 -98.8558
rradius 33.1112
rwrist 6.30919
rhand 3.72214 13.9642
rfingers 7.12502
rthumb 29.1504 -13.7735
lclavicle 3.65112e-015 -6.4605e-015
lhumerus -34.7022 -19.9013 100.284
lradius 21.987
lwrist -2.82891
lhand 6.56332 25.6613
lfingers 7.12502
lthumb 31.8599 52.8953
rfemur 0 0 0
rtibia 0
rfoot 0 0
rtoes 0
lfemur -7.30855 -17.9418 -16.6093
ltibia 14.7632
lfoot -13.2291 14.2874
ltoes -16.2082
2639
root 0.190108 17.5033 -0.407104 5.48329 1.60257 -1.38248
lowerback 0.602074 -0.439811 0.160189
upperback -3.16643 -0.552365 0.996781
thorax -3.58287 -0.263996 0.955971
lowerneck -16.8298 -11.3377 -14.7989
upperneck 25.7448 -16.2647 13.8359
head 14.0625 -7.01575 4.92127
rclavicle 4.57282e-015 -1.90833e-014
rhumerus -39.1866 20.9415 -98.8327
rradius 32.8454
rwrist 6.85079
rhand 3.48676 14.1975
rfingers 7.12502
rthumb 28.9256 -13.579
lclavicle 4.57282e-015 -1.90833e-014
lhumerus -34.4974 -19.3805 100.148
lradius 21.7875
lwrist -3.81326
lhand 5.60279 25.1354
lfingers 7.12502
lthumb 30.9448 52.5474
rfemur 0 0 0
rtibia 0
rfoot 0 0
rtoes 0
lfemur -7.31015 -18.0279 -16.5239
ltibia 14.8068
lfoot -13.1731 14.4133
ltoes -16.5157
2640
root 0.190824 17.5028 -0.408759 5.46218 1.68361 -1.38894
lowerback 0.629093 -0.457114 0.15472
upperback -3.18114 -0.574563 1.0195
thorax -3.6128 -0.274434 0.983641
lowerneck -16.8079 -11.3256 -14.8417
upperneck 25.8424 -16.2578 13.8508
head 14.105 -7.0149 4.94039
rclavicle 9.02917e-015 -7.95139e-015
rhumerus -39.1828 20.7684 -98.8476
rradius 32.5229
rwrist 7.23408
rhand 3.4177 14.3081
rfingers 7.12502
rthumb 28.8596 -13.4797
lclavicle 9.02917e-015 -7.95139e-015
lhumerus -34.2673 -18.695 99.9692
lradius 21.4997
lwrist -4.81746
lhand 4.20734 24.141
lfingers 7.12502
lthumb 29.6136 51.7975
rfemur 0 0 0
rtibia 0
rfoot 0 0
rtoes 0
lfemur -7.32789 -18.125 -16.5019
ltibia 14.8358
lfoot -13.0921 14.5335
ltoes -17.3437
2641
root 0.19076 17.504 -0.408346 5.42503 1.78359 -1.38375
lowerback 0.601775 -0.470759 0.134461
upperback -3.15412 -0.5937 1.0205
thorax -3.56884 -0.283515 0.996216
lowerneck -16.7895 -11.3283 -14.8354
upperneck 25.8838 -16.2824 13.8777
head 14.1262 -7.02202 4.9473
rclavicle -3.2287e-015 -9.34288e-015
rhumerus -39.0832 20.4309 -98.8004
rradius 32.1849
rwrist 7.56482
rhand 3.75406 14.1371
rfingers 7.12502
rthumb 29.1809 -13.5954
lclavicle -3.2287e-015 -9.34288e-015
lhumerus -34.01 -18.1872 99.8198
lradius 21.3037
lwrist -5.6016
lhand 3.53403 23.9126
lfingers 7.12502
lthumb 28.9707 51.6814
rfemur 0 0 0
rtibia 0
rfoot 0 0
rtoes 0
lfemur -7.29211 -18.2438 -16.5018
ltibia 14.8145
lfoot -13.0633 14.4854
ltoes -17.1576
